<?xml version="1.0" encoding="UTF-8" standalone="no"?>
<svg width="121px" height="34px" viewBox="0 0 121 34" version="1.1" xmlns="http://www.w3.org/2000/svg" xmlns:xlink="http://www.w3.org/1999/xlink" xmlns:sketch="http://www.bohemiancoding.com/sketch/ns">
    <title>coinkite-button-paynow</title>
    <description>Created with Sketch (http://www.bohemiancoding.com/sketch)</description>
    <defs></defs>
    <g id="Page-1" stroke="none" stroke-width="1" fill="none" fill-rule="evenodd" sketch:type="MSPage">
        <g id="coinkite-button-paynow" sketch:type="MSArtboardGroup">
            <rect id="Rectangle-1" stroke="#F58929" fill="#FF912F" sketch:type="MSShapeGroup" x="-0.42" y="0" width="121" height="34" rx="6"></rect>
            <g id="coinkite-chip-w" sketch:type="MSLayerGroup" transform="translate(8.000000, 8.000000)" fill="#FFFFFF">
                <g id="Page-1" sketch:type="MSShapeGroup">
                    <g id="coinkite-chip">
                        <g id="Page-1">
                            <g id="coinkite">
                                <path d="M23.5602394,19.0226538 L1.39109043,19.0226538 C0.616223404,19.0226538 -0.0143173759,18.4112149 -0.0143173759,17.6592104 L-0.0143173759,1.38072398 C-0.0143173759,0.629278281 0.616179078,0.017280543 1.39109043,0.017280543 L23.5602394,0.017280543 C24.3362589,0.017280543 24.9667996,0.629235294 24.9667996,1.38072398 L24.9667996,17.6592534 C24.966844,18.4112149 24.3362589,19.0226538 23.5602394,19.0226538 L23.5602394,19.0226538 L23.5602394,19.0226538 Z M1.46551418,17.5873371 L23.4870124,17.5873371 L23.4870124,1.45238235 L1.46551418,1.45238235 L1.46551418,17.5873371 L1.46551418,17.5873371 Z" id="Shape"></path>
                                <path d="M15.1371011,12.2980294 L15.1371011,14.503319 C15.1371011,14.9123348 14.7279699,15.2437602 14.2264628,15.2437602 L14.069016,15.2437602 L14.069016,16.5670543 L22.2914007,16.5670543 L22.2914007,12.2979864 L15.1371011,12.2980294 L15.1371011,12.2980294 Z" id="Shape"></path>
                                <rect id="Rectangle" x="15.1152482" y="7.52262443" width="7.15429965" height="3.9510543"></rect>
                                <path d="M14.069016,2.47842534 L14.069016,3.79591629 L14.2264628,3.79591629 C14.7280142,3.79591629 15.1371011,4.12811538 15.1371011,4.53635747 L15.1371011,6.74749321 L22.2914007,6.74749321 L22.2914007,2.47842534 L14.069016,2.47842534 L14.069016,2.47842534 Z" id="Shape"></path>
                                <path d="M10.7261082,15.2438032 C10.2233156,15.2438032 9.81524823,14.9123778 9.81524823,14.503362 L9.81524823,12.2980724 L2.62092199,12.2980724 L2.62092199,16.5671403 L10.8444149,16.5671403 L10.8444149,15.2438462 L10.7261082,15.2438462 L10.7261082,15.2438032 L10.7261082,15.2438032 Z" id="Shape"></path>
                                <rect id="Rectangle" x="2.61524823" y="7.52262443" width="7.19432624" height="3.9510543"></rect>
                                <path d="M9.81524823,4.53635747 C9.81524823,4.1280724 10.2233156,3.79591629 10.7261082,3.79591629 L10.8444592,3.79591629 L10.8444592,2.47842534 L2.62092199,2.47842534 L2.62092199,6.74749321 L9.81524823,6.74749321 L9.81524823,4.53635747 L9.81524823,4.53635747 Z" id="Shape"></path>
                                <path d="M14.314672,13.9900181 C14.314672,14.2263575 14.1171099,14.417948 13.8734043,14.417948 L11.0786791,14.417948 C10.8349734,14.417948 10.6374113,14.2263575 10.6374113,13.9900181 L10.6374113,5.09840498 C10.6374113,4.86206561 10.8349734,4.67047511 11.0786791,4.67047511 L13.8734043,4.67047511 C14.1171099,4.67047511 14.314672,4.86206561 14.314672,5.09840498 L14.314672,13.9900181 L14.314672,13.9900181 Z" id="Shape"></path>
                            </g>
                        </g>
                    </g>
                </g>
            </g>
            <path d="M41.5053711,2.49999961 L41.5053698,31.4999996" id="Path-8" stroke="#F58929" sketch:type="MSShapeGroup"></path>
            <path d="M40.5053711,2.49999961 L40.5053698,31.4999996" id="Path-8" stroke-opacity="0.718893612" stroke="#FFA232" sketch:type="MSShapeGroup"></path>
            <text id="Pay-Now" sketch:type="MSTextLayer" font-family="Open Sans" font-size="15" font-weight="526" fill="#FFFFFF">
                <tspan x="48" y="23">Pay Now</tspan>
            </text>
        </g>
    </g>
</svg>