<?xml version="1.0" encoding="UTF-8" standalone="no"?>
<svg width="171px" height="48px" viewBox="0 0 171 48" version="1.1" xmlns="http://www.w3.org/2000/svg" xmlns:xlink="http://www.w3.org/1999/xlink" xmlns:sketch="http://www.bohemiancoding.com/sketch/ns">
    <title>coinkite-button-buynow-lg</title>
    <description>Created with Sketch (http://www.bohemiancoding.com/sketch)</description>
    <defs></defs>
    <g id="Page-1" stroke="none" stroke-width="1" fill="none" fill-rule="evenodd" sketch:type="MSPage">
        <g id="coinkite-button-buynow-lg" sketch:type="MSArtboardGroup">
            <rect id="Rectangle-1" stroke="#F58929" fill="#FF912F" sketch:type="MSShapeGroup" x="-0.42" y="0" width="171" height="48.5" rx="6"></rect>
            <g id="coinkite-chip-w" sketch:type="MSLayerGroup" transform="translate(9.000000, 10.000000)" fill="#FFFFFF">
                <g id="Page-1" sketch:type="MSShapeGroup">
                    <g id="coinkite-chip">
                        <g id="Page-1">
                            <g id="coinkite">
                                <path d="M36.7539734,29.0345769 L2.17010106,29.0345769 C0.961308511,29.0345769 -0.0223351064,28.1013281 -0.0223351064,26.9535317 L-0.0223351064,2.10742081 C-0.0223351064,0.960477376 0.961239362,0.0263755656 2.17010106,0.0263755656 L36.7539734,0.0263755656 C37.9645638,0.0263755656 38.9482074,0.960411765 38.9482074,2.10742081 L38.9482074,26.9535973 C38.9482766,28.1013281 37.9645638,29.0345769 36.7539734,29.0345769 L36.7539734,29.0345769 L36.7539734,29.0345769 Z M2.28620213,26.8438303 L36.6397394,26.8438303 L36.6397394,2.21679412 L2.28620213,2.21679412 L2.28620213,26.8438303 L2.28620213,26.8438303 Z" id="Shape"></path>
                                <path d="M23.6138777,18.7706765 L23.6138777,22.1366448 C23.6138777,22.7609321 22.975633,23.2667919 22.1932819,23.2667919 L21.9476649,23.2667919 L21.9476649,25.2865566 L34.7745851,25.2865566 L34.7745851,18.7706109 L23.6138777,18.7706765 L23.6138777,18.7706765 Z" id="Shape"></path>
                                <rect id="Rectangle" x="23.5797872" y="11.4819005" width="11.1607074" height="6.03055656"></rect>
                                <path d="M21.9476649,3.78285973 L21.9476649,5.79376697 L22.1932819,5.79376697 C22.9757021,5.79376697 23.6138777,6.30080769 23.6138777,6.92391403 L23.6138777,10.2988054 L34.7745851,10.2988054 L34.7745851,3.78285973 L21.9476649,3.78285973 L21.9476649,3.78285973 Z" id="Shape"></path>
                                <path d="M16.7327287,23.2668575 C15.9483723,23.2668575 15.3117872,22.7609977 15.3117872,22.1367104 L15.3117872,18.7707421 L4.0886383,18.7707421 L4.0886383,25.2866878 L16.9172872,25.2866878 L16.9172872,23.2669231 L16.7327287,23.2669231 L16.7327287,23.2668575 L16.7327287,23.2668575 Z" id="Shape"></path>
                                <rect id="Rectangle" x="4.07978723" y="11.4819005" width="11.2231489" height="6.03055656"></rect>
                                <path d="M15.3117872,6.92391403 C15.3117872,6.30074208 15.9483723,5.79376697 16.7327287,5.79376697 L16.9173564,5.79376697 L16.9173564,3.78285973 L4.0886383,3.78285973 L4.0886383,10.2988054 L15.3117872,10.2988054 L15.3117872,6.92391403 L15.3117872,6.92391403 Z" id="Shape"></path>
                                <path d="M22.3308883,21.3531855 C22.3308883,21.713914 22.0226915,22.0063416 21.6425106,22.0063416 L17.2827394,22.0063416 C16.9025585,22.0063416 16.5943617,21.713914 16.5943617,21.3531855 L16.5943617,7.78177602 C16.5943617,7.42104751 16.9025585,7.12861991 17.2827394,7.12861991 L21.6425106,7.12861991 C22.0226915,7.12861991 22.3308883,7.42104751 22.3308883,7.78177602 L22.3308883,21.3531855 L22.3308883,21.3531855 Z" id="Shape"></path>
                            </g>
                        </g>
                    </g>
                </g>
            </g>
            <path d="M58.5053711,2.49999961 L58.5053692,46.4999996" id="Path-8" stroke="#F58929" sketch:type="MSShapeGroup"></path>
            <path d="M57.5053711,2.49999961 L57.5053692,46.4999996" id="Path-8" stroke-opacity="0.718893612" stroke="#FFA232" sketch:type="MSShapeGroup"></path>
            <text id="Buy-Now" sketch:type="MSTextLayer" font-family="Open Sans" font-size="18" font-weight="526" fill="#FFFFFF">
                <tspan x="75" y="31">Buy Now</tspan>
            </text>
        </g>
    </g>
</svg>